<svg width="205" height="22" xmlns="http://www.w3.org/2000/svg" fill="none">

 <g>
  <title>Layer 1</title>
  <path id="svg_2" fill="#F09D51" d="m118.631,0.588l0,17.412l-3.624,0l0,-7.5l-7.668,0l0,7.5l-3.624,0l0,-17.412l3.624,0l0,7.392l7.668,0l0,-7.392l3.624,0zm15.595,4.848c0.928,0 1.772,0.148 2.532,0.444c0.76,0.296 1.412,0.72 1.956,1.272c0.544,0.544 0.964,1.208 1.26,1.992c0.296,0.784 0.444,1.668 0.444,2.652c0,0.984 -0.148,1.872 -0.444,2.664c-0.296,0.784 -0.716,1.452 -1.26,2.004c-0.544,0.552 -1.196,0.976 -1.956,1.272c-0.76,0.296 -1.604,0.444 -2.532,0.444c-0.936,0 -1.788,-0.148 -2.556,-0.444c-0.76,-0.296 -1.412,-0.72 -1.956,-1.272c-0.544,-0.552 -0.968,-1.22 -1.272,-2.004c-0.296,-0.792 -0.444,-1.68 -0.444,-2.664c0,-0.984 0.148,-1.868 0.444,-2.652c0.304,-0.784 0.728,-1.448 1.272,-1.992c0.544,-0.552 1.196,-0.976 1.956,-1.272c0.768,-0.296 1.62,-0.444 2.556,-0.444zm0,10.26c0.944,0 1.644,-0.324 2.1,-0.972c0.456,-0.656 0.684,-1.628 0.684,-2.916c0,-1.28 -0.228,-2.244 -0.684,-2.892c-0.456,-0.656 -1.156,-0.984 -2.1,-0.984c-0.968,0 -1.68,0.328 -2.136,0.984c-0.456,0.648 -0.684,1.612 -0.684,2.892c0,1.288 0.228,2.26 0.684,2.916c0.456,0.648 1.168,0.972 2.136,0.972zm26.332,-10.068l0,12.372l-2.04,0c-0.424,0 -0.696,-0.192 -0.816,-0.576l-0.216,-0.864c-0.248,0.24 -0.504,0.46 -0.768,0.66c-0.264,0.2 -0.548,0.372 -0.852,0.516c-0.296,0.144 -0.62,0.256 -0.972,0.336c-0.344,0.08 -0.72,0.12 -1.128,0.12c-0.672,0 -1.272,-0.116 -1.8,-0.348c-0.52,-0.232 -0.956,-0.556 -1.308,-0.972c-0.352,-0.416 -0.62,-0.912 -0.804,-1.488c-0.184,-0.576 -0.276,-1.208 -0.276,-1.896l0,-7.86l3.312,0l0,7.86c0,0.688 0.156,1.224 0.468,1.608c0.32,0.376 0.792,0.564 1.416,0.564c0.464,0 0.9,-0.1 1.308,-0.3c0.408,-0.208 0.796,-0.488 1.164,-0.84l0,-8.892l3.312,0zm17.625,2.544c-0.088,0.136 -0.18,0.236 -0.276,0.3c-0.088,0.056 -0.212,0.084 -0.372,0.084c-0.16,0 -0.324,-0.04 -0.492,-0.12c-0.168,-0.08 -0.356,-0.164 -0.564,-0.252c-0.208,-0.096 -0.448,-0.184 -0.72,-0.264c-0.264,-0.08 -0.572,-0.12 -0.924,-0.12c-0.536,0 -0.952,0.112 -1.248,0.336c-0.296,0.216 -0.444,0.504 -0.444,0.864c0,0.248 0.084,0.456 0.252,0.624c0.168,0.168 0.388,0.316 0.66,0.444c0.28,0.12 0.596,0.236 0.948,0.348c0.352,0.104 0.712,0.22 1.08,0.348c0.376,0.128 0.74,0.276 1.092,0.444c0.352,0.168 0.664,0.38 0.936,0.636c0.28,0.248 0.504,0.552 0.672,0.912c0.168,0.352 0.252,0.78 0.252,1.284c0,0.6 -0.112,1.156 -0.336,1.668c-0.216,0.504 -0.536,0.94 -0.96,1.308c-0.424,0.368 -0.952,0.656 -1.584,0.864c-0.632,0.208 -1.36,0.312 -2.184,0.312c-0.424,0 -0.844,-0.04 -1.26,-0.12c-0.416,-0.072 -0.812,-0.176 -1.188,-0.312c-0.376,-0.144 -0.728,-0.308 -1.056,-0.492c-0.328,-0.184 -0.612,-0.384 -0.852,-0.6l0.768,-1.236c0.088,-0.144 0.196,-0.256 0.324,-0.336c0.136,-0.08 0.308,-0.12 0.516,-0.12c0.2,0 0.384,0.052 0.552,0.156c0.168,0.096 0.356,0.204 0.564,0.324c0.208,0.112 0.452,0.22 0.732,0.324c0.288,0.096 0.644,0.144 1.068,0.144c0.32,0 0.596,-0.036 0.828,-0.108c0.232,-0.072 0.42,-0.168 0.564,-0.288c0.144,-0.128 0.248,-0.268 0.312,-0.42c0.072,-0.16 0.108,-0.324 0.108,-0.492c0,-0.272 -0.088,-0.492 -0.264,-0.66c-0.168,-0.176 -0.392,-0.328 -0.672,-0.456c-0.272,-0.128 -0.588,-0.244 -0.948,-0.348c-0.36,-0.104 -0.728,-0.22 -1.104,-0.348c-0.368,-0.128 -0.732,-0.28 -1.092,-0.456c-0.352,-0.176 -0.668,-0.396 -0.948,-0.66c-0.272,-0.272 -0.496,-0.604 -0.672,-0.996c-0.168,-0.392 -0.252,-0.868 -0.252,-1.428c0,-0.512 0.1,-0.996 0.3,-1.452c0.2,-0.464 0.5,-0.872 0.9,-1.224c0.4,-0.352 0.896,-0.632 1.488,-0.84c0.6,-0.208 1.292,-0.312 2.076,-0.312c0.88,0 1.68,0.144 2.4,0.432c0.72,0.288 1.312,0.664 1.776,1.128l-0.756,1.176zm17.974,2.184c0,-0.344 -0.048,-0.672 -0.144,-0.984c-0.088,-0.312 -0.232,-0.588 -0.432,-0.828c-0.2,-0.24 -0.452,-0.428 -0.756,-0.564c-0.304,-0.144 -0.668,-0.216 -1.092,-0.216c-0.792,0 -1.412,0.224 -1.86,0.672c-0.448,0.448 -0.74,1.088 -0.876,1.92l5.16,0zm-5.208,1.968c0.104,1.16 0.432,2.008 0.984,2.544c0.56,0.536 1.288,0.804 2.184,0.804c0.456,0 0.848,-0.052 1.176,-0.156c0.336,-0.112 0.628,-0.232 0.876,-0.36c0.256,-0.136 0.484,-0.256 0.684,-0.36c0.208,-0.112 0.412,-0.168 0.612,-0.168c0.256,0 0.456,0.096 0.6,0.288l0.96,1.2c-0.352,0.408 -0.74,0.748 -1.164,1.02c-0.424,0.264 -0.864,0.476 -1.32,0.636c-0.456,0.152 -0.916,0.256 -1.38,0.312c-0.464,0.064 -0.912,0.096 -1.344,0.096c-0.864,0 -1.672,-0.14 -2.424,-0.42c-0.744,-0.288 -1.396,-0.708 -1.956,-1.26c-0.552,-0.56 -0.988,-1.252 -1.308,-2.076c-0.32,-0.824 -0.48,-1.78 -0.48,-2.868c0,-0.84 0.136,-1.632 0.408,-2.376c0.28,-0.744 0.68,-1.392 1.2,-1.944c0.52,-0.552 1.152,-0.988 1.896,-1.308c0.744,-0.328 1.584,-0.492 2.52,-0.492c0.792,0 1.52,0.128 2.184,0.384c0.672,0.248 1.248,0.612 1.728,1.092c0.488,0.48 0.864,1.072 1.128,1.776c0.272,0.696 0.408,1.492 0.408,2.388c0,0.248 -0.012,0.452 -0.036,0.612c-0.024,0.16 -0.064,0.288 -0.12,0.384c-0.056,0.096 -0.132,0.164 -0.228,0.204c-0.096,0.032 -0.22,0.048 -0.372,0.048l-7.416,0z"/>
  <path d="m63.5,5.20001c-1,0 -3,0 -3,0c-1,0 -2,0 -4,0c0,0 -1,0 -4,0c0,0 -1,0 -2,0c-2,0 -2,2 -1,2c1,0 2.1731,0.85273 3,2c1.30745,1.81399 2.81266,2.20681 5,4c2.78833,2.28588 4.08031,4.37641 8,6c2.77164,1.14805 5.82375,1.48626 8,2c1.9465,0.45951 4.14935,-0.52573 5,0c1.90211,1.17557 3,2 4,2c1,0 1.69344,-0.4588 3,-1c0.92388,-0.38268 2.4588,-0.69344 3,-2c0.38268,-0.92388 1.29289,-1.29289 2,-2c0.70711,-0.70711 0,-2 1,-2l0,-1" id="svg_3" fill="none"/>
  <text transform="matrix(1.15022 0 0 1 -1.20783 0)" stroke="null" xml:space="preserve" text-anchor="start" font-family="Noto Sans JP" font-size="24" stroke-width="0" id="svg_6" y="18.20001" x="7.68517" fill="#000000">GUEST</text>
 </g>
</svg>